<?xml version="1.0" encoding="utf-8"?><svg viewBox="0 0 24 16" xmlns="http://www.w3.org/2000/svg" xmlns:xlink="http://www.w3.org/1999/xlink"><style>:root>svg{display:none}:root>svg:target{display:block}</style><svg fill="none" viewBox="0 0 11 11" id="svg--aside_arrow" xmlns="http://www.w3.org/2000/svg"><path fill-rule="evenodd" clip-rule="evenodd" d="M1.742 9.617a.278.278 0 01-.02-.4l2.541-2.74-2.06-.039a.286.286 0 01-.284-.288.286.286 0 01.295-.277l2.975.054.056 2.909a.286.286 0 01-.284.288.286.286 0 01-.295-.278L4.63 6.923 2.15 9.597a.294.294 0 01-.408.02zM9.258 1.383a.278.278 0 01.02.4l-2.541 2.74 2.06.039c.16.002.287.131.284.288a.286.286 0 01-.295.277l-2.975-.054-.056-2.909a.286.286 0 01.284-.288.286.286 0 01.295.278l.036 1.923 2.48-2.674a.294.294 0 01.408-.02z" fill="#fff"/></svg><svg fill="none" viewBox="0 0 9 11" id="svg--aside_filter" xmlns="http://www.w3.org/2000/svg"><path d="M8.958 1.074L6.083 6.15V8.83c0 .12-.065.23-.17.284l-2.596 1.352a.31.31 0 01-.306-.012.323.323 0 01-.15-.272v-.428L5.46 8.399V5.477l.002-.002L8.224.595h.463c.111 0 .215.061.271.16a.325.325 0 010 .319zm-4.245 6.86V5.352c0-.052.013-.104.039-.15L7.406.517 7.416.5H-.001l2.663 4.704c.026.045.04.097.04.149V8.98l2.01-1.047z" fill="#fff"/></svg><svg fill="none" viewBox="0 0 11 15" id="svg--aside_top" xmlns="http://www.w3.org/2000/svg"><path d="M5.12 1.691L4.14.151A.321.321 0 003.865 0H.322a.33.33 0 00-.278.153.303.303 0 00-.003.309l2.782 4.84 2.298-3.612zM8.35 5L10.958.466a.301.301 0 00-.003-.313.33.33 0 00-.278-.153H7.133a.326.326 0 00-.275.15L3.775 5H8.35z" fill="#fff"/><path fill-rule="evenodd" clip-rule="evenodd" d="M10.03 10.625C10.03 13.037 7.996 15 5.5 15 3 15 .97 13.037.97 10.625c0-1.575.863-3.006 2.264-3.788v-.9a.32.32 0 01.324-.312H7.44a.32.32 0 01.323.312v.9c1.401.782 2.265 2.213 2.265 3.788zm-3.933-.433L5.5 8.415l-.598 1.777H2.966l1.566 1.099-.598 1.777 1.565-1.098 1.566 1.098-.598-1.777 1.565-1.099H6.097z" fill="#fff"/></svg><svg fill="none" viewBox="0 0 18 8" id="svg--content_arrow" xmlns="http://www.w3.org/2000/svg"><path d="M17.354 4.354a.5.5 0 000-.708L14.172.464a.5.5 0 10-.708.708L16.293 4l-2.829 2.828a.5.5 0 10.708.708l3.182-3.182zM0 4.5h17v-1H0v1z" fill="#fff"/></svg><svg fill="none" viewBox="0 0 24 12" id="svg--content_calendar" xmlns="http://www.w3.org/2000/svg"><path d="M15.907 1.116h-.698V.42a.419.419 0 10-.837 0v.697H12.42V.42a.419.419 0 10-.838 0v.697H9.628V.42a.419.419 0 10-.837 0v.697h-.698A2.096 2.096 0 006 3.21v6.698A2.096 2.096 0 008.093 12h7.814A2.096 2.096 0 0018 9.907V3.209a2.096 2.096 0 00-2.093-2.093zm-7.814.837h.698v.698a.419.419 0 10.837 0v-.698h1.954v.698a.419.419 0 10.837 0v-.698h1.953v.698a.419.419 0 10.838 0v-.698h.697a1.257 1.257 0 011.256 1.256v.698H6.837v-.698a1.257 1.257 0 011.256-1.256zm9.07 7.954a1.256 1.256 0 01-1.256 1.256H8.093a1.257 1.257 0 01-1.256-1.256V4.744h10.326v5.163z" fill="#fff"/><path d="M11.442 6.558a.558.558 0 11-1.116 0 .558.558 0 011.116 0zM9.21 6.558a.558.558 0 11-1.117 0 .558.558 0 011.116 0zM15.907 6.558a.558.558 0 11-1.116 0 .558.558 0 011.116 0zM13.675 6.558a.558.558 0 11-1.117 0 .558.558 0 011.117 0zM11.442 8.79a.558.558 0 11-1.116 0 .558.558 0 011.116 0zM9.21 8.79a.558.558 0 11-1.117 0 .558.558 0 011.116 0zM15.907 8.79a.558.558 0 11-1.116.001.558.558 0 011.116 0zM13.675 8.79a.558.558 0 11-1.117 0 .558.558 0 011.117 0zM24 6.5l-2.25 2.165v-4.33L24 6.5zM0 6.5l2.25 2.165v-4.33L0 6.5z" fill="#fff"/></svg><svg fill="none" viewBox="0 0 11 9" id="svg--content_diagram" xmlns="http://www.w3.org/2000/svg"><path d="M1 8h1.688M10 8H8.125m0 0V1m0 7H7M5.875 8V4.706m0 3.294H7M5.875 8h-1.5M7 8V5.941M7 8H4.375m0 0V2.647m0 5.353H2.687m0 0V5.941" stroke="#333" stroke-linecap="square"/></svg><svg fill="none" viewBox="0 0 10 10" id="svg--content_spine" xmlns="http://www.w3.org/2000/svg"><path fill-rule="evenodd" clip-rule="evenodd" d="M2.604 6.43L0 10l3.57-2.604 1.848 1.848c.665-.853.769-2.026.334-3.066L8.27 3.661l1.73-.4-1.63-1.63L6.738 0l-.4 1.73-2.517 2.518c-1.04-.435-2.213-.33-3.066.334l1.848 1.849z" fill="#636363"/></svg><svg fill="none" viewBox="0 0 11 10" id="svg--content_star" xmlns="http://www.w3.org/2000/svg"><path d="M5.5.809l.997 3.069.056.172h3.408l-2.61 1.897-.147.107.056.172.997 3.07-2.61-1.897-.147-.107-.147.107-2.61 1.896.997-3.069.056-.172-.147-.107-2.61-1.897h3.408l.056-.172L5.5.809z" stroke="#333" stroke-width=".5"/></svg><svg fill="none" viewBox="0 0 15 16" id="svg--header_cup" xmlns="http://www.w3.org/2000/svg"><path d="M14.998 2.39c0-.246.024-.504-.099-.73-.142-.263-.42-.4-.711-.401H12.388v-.164a.618.618 0 00-.63-.593h-8.01c-.176 0-.352-.005-.53 0-.357.01-.604.296-.604.648v.11H1.301c-.188 0-.38-.013-.566.004a.794.794 0 00-.733.788v2.053c0 .604-.037 1.222.18 1.797.19.506.493.968.914 1.306a3.054 3.054 0 001.807.694c.062.178.134.354.218.525a4.94 4.94 0 001.825 2.017c.457.282.96.487 1.482.606v1.348H4.73c-.279.009-.483.183-.57.444-.207.61-.41 1.221-.608 1.836a.634.634 0 00.267.734.67.67 0 00.356.088H10.887a.626.626 0 00.57-.802c-.022-.076-.05-.15-.074-.225l-.374-1.132-.144-.437c-.008-.027-.017-.056-.027-.083a.606.606 0 00-.359-.38c-.151-.06-.344-.04-.503-.04H8.575V11.05a4.937 4.937 0 001.991-.97 4.937 4.937 0 001.535-2.174 3.027 3.027 0 002.533-1.584 3.13 3.13 0 00.364-1.452V2.39zM2.232 6.734a2.37 2.37 0 01-.356-.2c-.033-.022-.067-.047-.099-.07h-.001c.01.008.023.021.033.028-.025-.017-.092-.071-.033-.029l-.009-.008a2.128 2.128 0 01-.17-.158 3.064 3.064 0 01-.155-.172l-.015-.019-.057-.081a2.592 2.592 0 01-.203-.366c.008.022.016.044.026.066l-.05-.121a.79.79 0 01.024.055 2.637 2.637 0 01-.14-.516c-.038-.362-.015-.738-.015-1.1V2.415l-.003-.141h1.607v3.884c0 .235.013.47.044.702a2.7 2.7 0 01-.428-.127zm7.952-1.81l-.156.16c-.33.335-.658.672-.989 1.007a2907.947 2907.947 0 00.263 1.587c.018.105-.004.2-.09.268a.253.253 0 01-.28.02l-.193-.102-1.224-.646-.07.035-1.368.713c-.205.106-.408-.068-.37-.286l.038-.222.231-1.367-.065-.066-1.092-1.102c-.121-.122-.084-.396.11-.425l.22-.032c.47-.07.938-.137 1.408-.206l.047-.098.68-1.4a.221.221 0 01.133-.111l.015-.005.009-.002.008-.002a.205.205 0 01.034-.003h.033c.012 0 .022.001.034.003l.013.004h.007l.013.003a.221.221 0 01.135.112c.033.067.067.135.099.203l.64 1.303.111.015c.502.07 1.002.144 1.503.215.197.03.232.303.113.426zm3.793.223a2.569 2.569 0 01-.14.512 2.395 2.395 0 01-.197.36c-.022.033-.048.067-.071.099.008-.008.02-.02.027-.03-.019.027-.069.09-.027.03l-.008.01a2.469 2.469 0 01-.326.33l-.02.015a2.376 2.376 0 01-.443.263l.066-.027-.121.05.055-.023c-.139.055-.283.096-.431.127.034-.285.047-.57.047-.858v-3.73h1.605V4.631c-.001.173 0 .344-.016.515z" fill="#333"/></svg><svg fill="none" viewBox="0 0 9 10" id="svg--header_enter" xmlns="http://www.w3.org/2000/svg"><path d="M4.295.156H9v9.689H4.295V8.553h3.478V1.447H4.295V.156z" fill="#333"/><path d="M7.16 5L4.704 2.524V4.03H0V5.97h4.705v1.507L7.159 5z" fill="#333"/></svg><svg fill="none" viewBox="0 0 10 10" id="svg--header_pen" xmlns="http://www.w3.org/2000/svg"><path d="M9.462 3.126a1.843 1.843 0 000-2.605 1.882 1.882 0 00-2.6 0l-.294.295 2.6 2.605.294-.295zM.487 7.078L.025 8.93A.863.863 0 00.855 10a.86.86 0 00.211-.027l1.85-.462a.855.855 0 00.327-.172L.659 6.752a.857.857 0 00-.172.326zM1.17 6.22l4.875-4.884 2.601 2.606-4.875 4.885L1.17 6.22z" fill="#333"/></svg><svg fill="none" viewBox="0 0 8 14" id="svg--header_phone" xmlns="http://www.w3.org/2000/svg"><path d="M7.188 14c.22-.005.43-.1.581-.264a.874.874 0 00.23-.611V.875a.874.874 0 00-.23-.61A.818.818 0 007.19 0H.811A.818.818 0 00.23.264.874.874 0 000 .875v12.25a.874.874 0 00.23.61c.152.165.36.26.58.265h6.377zM.812.656h.762l.315 1.002a.319.319 0 00.302.227h3.618c.138 0 .26-.092.302-.227L6.426.656h.762a.204.204 0 01.176.219v11.097H.635V.875A.204.204 0 01.811.656zm2.87 12.296c0-.086.034-.17.093-.232a.312.312 0 01.224-.096h.002c.128 0 .244.08.293.204a.336.336 0 01-.07.357.31.31 0 01-.346.07.329.329 0 01-.196-.303z" fill="#333"/></svg><svg fill="none" viewBox="0 0 13 12" id="svg--header_set" xmlns="http://www.w3.org/2000/svg"><path fill-rule="evenodd" clip-rule="evenodd" d="M4.557 5.102c.214.057.429.143.616.257l.831-.627c.054-.057.134-.029.161 0l.67.712c.027.029.054.114 0 .171l-.59.884c.108.2.188.427.268.627l.992.2c.054 0 .107.056.107.142v.97c0 .056-.053.113-.107.142l-.992.2c-.08.227-.16.427-.268.626l.59.884c.054.057.054.142 0 .17l-.643.713c-.054.029-.134.057-.188 0l-.83-.627c-.188.114-.376.2-.59.285l-.188 1.055c-.027.086-.08.114-.134.114H3.35c-.081 0-.135-.057-.135-.114l-.187-1.055a2.644 2.644 0 01-.59-.256l-.83.598c-.054.057-.135.029-.188 0l-.644-.712c-.053-.029-.053-.114 0-.171l.59-.884a2.78 2.78 0 01-.268-.655L.107 8.58C.054 8.58 0 8.494 0 8.437v-.969c0-.086.054-.143.107-.143l.992-.2c.054-.199.16-.427.268-.626l-.59-.884c-.027-.057-.027-.142.027-.17l.643-.713c.054-.029.108-.057.161 0l.831.627c.188-.114.402-.2.617-.257l.16-1.083c0-.057.054-.114.134-.114h.912c.053 0 .107.057.134.114l.16 1.083zm-.75.884c-1.02 0-1.85.883-1.85 1.966 0 1.084.83 1.967 1.85 1.967 1.018 0 1.849-.883 1.849-1.967 0-1.083-.831-1.966-1.85-1.966z" fill="#333"/><path fill-rule="evenodd" clip-rule="evenodd" d="M3.806 6.926c.536 0 .965.456.965 1.027 0 .57-.428 1.026-.965 1.026-.536 0-.965-.456-.965-1.026 0-.57.43-1.027.965-1.027zM10.159.998c.188.057.375.114.536.2l.67-.628a.162.162 0 01.16 0l.59.57c.054.029.054.086.027.143l-.428.826c.08.171.187.342.24.513l.885.086c.054 0 .107.057.107.114l.054.855c0 .057-.027.114-.08.114l-.858.257c-.027.2-.107.37-.188.57l.59.712c.027.029.027.114 0 .171l-.51.627c-.053.057-.107.057-.16.029l-.75-.485c-.162.114-.35.2-.51.285l-.107.94c0 .058-.027.086-.107.115l-.778.057a.147.147 0 01-.134-.086l-.214-.912c-.188-.057-.349-.114-.536-.17l-.67.57c-.054.056-.108.056-.161 0l-.59-.542c-.053-.029-.053-.114-.027-.171l.456-.798c-.107-.171-.214-.342-.268-.542l-.858-.086c-.08 0-.107-.057-.107-.114l-.08-.826c0-.086.027-.143.107-.143l.83-.228c.054-.2.108-.399.188-.57l-.562-.712a.192.192 0 010-.171l.509-.656c.053-.028.107-.057.16 0l.751.456c.16-.085.322-.2.51-.256L8.898.17a.216.216 0 01.107-.114L9.81 0c.054 0 .108.029.134.086l.215.912zm-.59.826c-.911.086-1.554.912-1.5 1.853.08.94.857 1.625 1.741 1.568.885-.086 1.555-.912 1.475-1.853-.08-.94-.831-1.625-1.716-1.568z" fill="#333"/><path fill-rule="evenodd" clip-rule="evenodd" d="M9.623 2.651c.455-.028.857.314.884.827.054.484-.295.912-.75.94a.86.86 0 01-.912-.826c-.027-.485.322-.912.777-.94z" fill="#333"/></svg><svg fill="none" viewBox="0 0 17 14" id="svg--header_stat" xmlns="http://www.w3.org/2000/svg"><path d="M1 13h2.813M16 13h-3.125m0 0V1m0 12H11m-1.875 0V7.353m0 5.647H11m-1.875 0h-2.5M11 13H6.625m0 0V3.824m0 9.176H3.812m0 0V9.47" stroke="#333" stroke-linecap="square"/></svg></svg>