<svg width="11" height="15" viewBox="0 0 11 15" fill="none" xmlns="http://www.w3.org/2000/svg">
<path d="M5.12072 1.69106L4.14043 0.150503C4.08219 0.0567274 3.9786 0.000488281 3.86539 0.000488281H0.322374C0.209164 0.000488281 0.102316 0.0598647 0.0440882 0.15364C-0.0141427 0.250553 -0.0141427 0.366172 0.0408381 0.462954L2.82346 5.3034L5.12072 1.69106Z" fill="white"/>
<path d="M8.35006 5.00003L10.958 0.465603C11.0162 0.36869 11.013 0.249934 10.9547 0.153152C10.8965 0.0593764 10.7898 0 10.6765 0H7.13344C7.02348 0 6.91663 0.0562392 6.8584 0.150015L3.7749 4.99984L8.35006 5.00003Z" fill="white"/>
<path fill-rule="evenodd" clip-rule="evenodd" d="M10.0292 10.6249C10.0292 13.0374 7.99716 14.9999 5.4992 14.9999C3.00137 14.9999 0.969347 13.0374 0.969482 10.6249C0.969482 9.04981 1.83333 7.6186 3.23438 6.83741V5.93745C3.23438 5.7656 3.37995 5.625 3.55789 5.625H7.44065C7.61859 5.625 7.76416 5.7656 7.76416 5.93745L7.7643 6.83741C9.16521 7.6187 10.0292 9.04991 10.0292 10.6249ZM6.09719 10.1921L5.4992 8.41463L4.90121 10.1921H2.96609L4.53164 11.2906L3.93365 13.0681L5.4992 11.9696L7.06475 13.0681L6.46676 11.2906L8.03232 10.1921H6.09719Z" fill="white"/>
</svg>
