<svg width="9" height="11" viewBox="0 0 9 11" fill="none" xmlns="http://www.w3.org/2000/svg">
<path d="M8.95826 1.07389L6.08346 6.15148V8.82863C6.08346 8.94917 6.01808 9.05811 5.91276 9.11286L3.31734 10.4651C3.27342 10.488 3.22415 10.5 3.17479 10.5C3.11688 10.5 3.0604 10.4838 3.01131 10.453C2.91905 10.3955 2.86156 10.2912 2.86156 10.1807L2.86164 9.75264L5.45945 8.39939V5.47697L5.46081 5.47455L8.2236 0.595074H8.68693C8.79844 0.595074 8.9024 0.656293 8.95811 0.754695C9.01391 0.853183 9.01399 0.975539 8.9582 1.07394L8.95826 1.07389ZM4.71259 7.93322V5.35303C4.71259 5.30054 4.72607 5.24892 4.75177 5.20378L7.40623 0.515564L7.41505 0.5H0L2.66337 5.20371C2.68906 5.24928 2.70254 5.30082 2.70254 5.35296V8.98019L4.71259 7.93322Z" fill="white"/>
</svg>
