<svg width="11" height="11" viewBox="0 0 11 11" fill="none" xmlns="http://www.w3.org/2000/svg">
<path fill-rule="evenodd" clip-rule="evenodd" d="M1.74173 9.61668C1.62334 9.51179 1.61436 9.33294 1.72167 9.21722L4.26336 6.4762L2.20309 6.43847C2.04333 6.43554 1.91626 6.30657 1.91925 6.15041C1.92224 5.99425 2.05417 5.87003 2.21393 5.87296L5.18925 5.92745L5.245 8.83586C5.24799 8.99202 5.12092 9.12098 4.96116 9.12391C4.80141 9.12684 4.66947 9.00261 4.66648 8.84645L4.62962 6.92341L2.15038 9.59708C2.04308 9.7128 1.86012 9.72158 1.74173 9.61668Z" fill="white"/>
<path fill-rule="evenodd" clip-rule="evenodd" d="M9.25827 1.38332C9.37666 1.48821 9.38564 1.66706 9.27833 1.78278L6.73664 4.5238L8.79691 4.56153C8.95666 4.56446 9.08374 4.69343 9.08075 4.84959C9.07776 5.00575 8.94583 5.12997 8.78607 5.12704L5.81075 5.07255L5.755 2.16414C5.75201 2.00798 5.87908 1.87902 6.03884 1.87609C6.19859 1.87316 6.33053 1.99739 6.33352 2.15355L6.37038 4.07659L8.84962 1.40292C8.95692 1.2872 9.13988 1.27842 9.25827 1.38332Z" fill="white"/>
</svg>
