<svg width="24" height="12" viewBox="0 0 24 12" fill="none" xmlns="http://www.w3.org/2000/svg">
<path d="M15.907 1.11622H15.2094V0.418601C15.2094 0.269005 15.1296 0.130815 15.0001 0.0560635C14.8706 -0.0186878 14.711 -0.0186878 14.5815 0.0560635C14.452 0.130815 14.3722 0.26901 14.3722 0.418601V1.11622H12.4187V0.418601C12.4187 0.269005 12.3389 0.130815 12.2094 0.0560635C12.0798 -0.0186878 11.9202 -0.0186878 11.7907 0.0560635C11.6612 0.130815 11.5814 0.26901 11.5814 0.418601V1.11622H9.62789V0.418601C9.62789 0.269005 9.54809 0.130815 9.41859 0.0560635C9.28908 -0.0186878 9.12948 -0.0186878 8.99998 0.0560635C8.87047 0.130815 8.79067 0.26901 8.79067 0.418601V1.11622H8.09305C7.53812 1.11687 7.00608 1.33757 6.61361 1.72992C6.22127 2.12236 6.00055 2.65432 6 3.20925V9.90697C6.00056 10.4619 6.22127 10.9939 6.61361 11.3864C7.00605 11.7787 7.53809 11.9994 8.09305 12H15.9069C16.4619 11.9994 16.9939 11.7787 17.3864 11.3864C17.7787 10.994 17.9994 10.4619 18 9.90697V3.20925C17.9994 2.65432 17.7787 2.12236 17.3864 1.72992C16.9939 1.33758 16.4619 1.11686 15.9069 1.11622H15.907ZM8.09315 1.95343H8.79077V2.65114C8.79077 2.80074 8.87056 2.93893 9.00007 3.01368C9.12958 3.08843 9.28918 3.08843 9.41868 3.01368C9.54819 2.93893 9.62799 2.80073 9.62799 2.65114V1.95343H11.5815V2.65114C11.5815 2.80074 11.6613 2.93893 11.7908 3.01368C11.9203 3.08843 12.0799 3.08843 12.2094 3.01368C12.339 2.93893 12.4188 2.80073 12.4188 2.65114V1.95343H14.3723V2.65114C14.3723 2.80074 14.4521 2.93893 14.5816 3.01368C14.7111 3.08843 14.8707 3.08843 15.0002 3.01368C15.1297 2.93893 15.2095 2.80073 15.2095 2.65114V1.95343H15.9071C16.2402 1.95371 16.5595 2.08621 16.7948 2.32159C17.0303 2.55706 17.1627 2.87633 17.163 3.20925V3.90696H6.83741V3.20925C6.83769 2.87633 6.9701 2.55704 7.20557 2.32159C7.44095 2.08622 7.76024 1.95372 8.09324 1.95343H8.09315ZM17.1629 9.90697C17.1626 10.24 17.0302 10.5593 16.7947 10.7946C16.5593 11.0301 16.24 11.1625 15.907 11.1628H8.09315C7.76012 11.1625 7.44083 11.0301 7.20548 10.7946C6.97001 10.5593 6.8376 10.24 6.83732 9.90697V4.74422H17.1631L17.1629 9.90697Z" fill="white"/>
<path d="M11.442 6.55811C11.442 6.86637 11.1921 7.11632 10.8838 7.11632C10.5755 7.11632 10.3257 6.86637 10.3257 6.55811C10.3257 6.24985 10.5755 6 10.8838 6C11.1921 6 11.442 6.24985 11.442 6.55811Z" fill="white"/>
<path d="M9.20925 6.55811C9.20925 6.86637 8.9594 7.11632 8.65113 7.11632C8.34287 7.11632 8.09302 6.86637 8.09302 6.55811C8.09302 6.24985 8.34287 6 8.65113 6C8.9594 6 9.20925 6.24985 9.20925 6.55811Z" fill="white"/>
<path d="M15.907 6.55811C15.907 6.86637 15.6572 7.11632 15.3489 7.11632C15.0406 7.11632 14.7908 6.86637 14.7908 6.55811C14.7908 6.24985 15.0406 6 15.3489 6C15.6572 6 15.907 6.24985 15.907 6.55811Z" fill="white"/>
<path d="M13.6746 6.55811C13.6746 6.86637 13.4247 7.11632 13.1164 7.11632C12.8082 7.11632 12.5582 6.86637 12.5582 6.55811C12.5582 6.24985 12.8082 6 13.1164 6C13.4247 6 13.6746 6.24985 13.6746 6.55811Z" fill="white"/>
<path d="M11.442 8.79087C11.442 9.09913 11.1921 9.34898 10.8838 9.34898C10.5755 9.34898 10.3257 9.09913 10.3257 8.79087C10.3257 8.48261 10.5755 8.23267 10.8838 8.23267C11.1921 8.23267 11.442 8.48261 11.442 8.79087Z" fill="white"/>
<path d="M9.20925 8.79087C9.20925 9.09913 8.9594 9.34898 8.65113 9.34898C8.34287 9.34898 8.09302 9.09913 8.09302 8.79087C8.09302 8.48261 8.34287 8.23267 8.65113 8.23267C8.9594 8.23267 9.20925 8.48261 9.20925 8.79087Z" fill="white"/>
<path d="M15.907 8.79087C15.907 9.09913 15.6572 9.34898 15.3489 9.34898C15.0406 9.34898 14.7908 9.09913 14.7908 8.79087C14.7908 8.48261 15.0406 8.23267 15.3489 8.23267C15.6572 8.23267 15.907 8.48261 15.907 8.79087Z" fill="white"/>
<path d="M13.6746 8.79087C13.6746 9.09913 13.4247 9.34898 13.1164 9.34898C12.8082 9.34898 12.5582 9.09913 12.5582 8.79087C12.5582 8.48261 12.8082 8.23267 13.1164 8.23267C13.4247 8.23267 13.6746 8.48261 13.6746 8.79087Z" fill="white"/>
<path d="M24 6.5L21.75 8.66506L21.75 4.33494L24 6.5Z" fill="white"/>
<path d="M1.09278e-07 6.5L2.25 8.66506L2.25 4.33494L1.09278e-07 6.5Z" fill="white"/>
</svg>
