<svg width="13" height="12" viewBox="0 0 13 12" fill="none" xmlns="http://www.w3.org/2000/svg">
<path fill-rule="evenodd" clip-rule="evenodd" d="M4.55678 5.10217C4.7712 5.15917 4.98561 5.24471 5.17327 5.35873L6.00415 4.73169C6.05776 4.67469 6.1382 4.70315 6.16496 4.73169L6.83505 5.44427C6.86189 5.47281 6.88865 5.55827 6.83505 5.61528L6.24541 6.49885C6.35261 6.6984 6.43306 6.9264 6.51343 7.12588L7.50513 7.32543C7.55874 7.32543 7.61234 7.38243 7.61234 7.46798V8.43711C7.61234 8.49412 7.55874 8.55112 7.50513 8.57966L6.51343 8.77921C6.43298 9.00723 6.35262 9.20677 6.24541 9.40624L6.83505 10.2898C6.88865 10.3468 6.88865 10.4324 6.83505 10.4608L6.19172 11.1734C6.13812 11.2019 6.05768 11.2304 6.00407 11.1734L5.17319 10.5464C4.98554 10.6604 4.79796 10.7459 4.58354 10.8314L4.39589 11.886C4.36905 11.9715 4.31545 12 4.26184 12H3.3505C3.27005 12 3.21645 11.943 3.21645 11.886L3.0288 10.8314C2.84115 10.7744 2.62674 10.6888 2.43915 10.5748L1.60827 11.1734C1.55466 11.2304 1.47422 11.2019 1.42062 11.1734L0.777292 10.4608C0.723687 10.4323 0.723687 10.3468 0.777292 10.2898L1.36694 9.40624C1.25973 9.20669 1.15251 8.97868 1.09891 8.75067L0.107207 8.57966C0.0536024 8.57966 0 8.49411 0 8.43711V7.46798C0 7.38243 0.0536044 7.32543 0.107207 7.32543L1.09891 7.12588C1.15252 6.92633 1.25972 6.69832 1.36694 6.49885L0.777292 5.61528C0.750451 5.55827 0.750451 5.47273 0.804132 5.44427L1.44746 4.73169C1.50106 4.70315 1.55466 4.67469 1.60827 4.73169L2.43915 5.35873C2.62681 5.24472 2.84122 5.15918 3.05564 5.10217L3.21645 4.01903C3.21645 3.96203 3.27005 3.90503 3.3505 3.90503H4.26184C4.31545 3.90503 4.36905 3.96203 4.39589 4.01903L4.5567 5.10217H4.55678ZM3.80626 5.98574C2.78771 5.98574 1.95682 6.86931 1.95682 7.95244C1.95682 9.03557 2.78771 9.91915 3.80626 9.91915C4.8248 9.91915 5.65569 9.03557 5.65569 7.95244C5.65569 6.86931 4.8248 5.98574 3.80626 5.98574Z" fill="#333333"/>
<path fill-rule="evenodd" clip-rule="evenodd" d="M3.80638 6.92639C4.34242 6.92639 4.77132 7.38241 4.77132 7.95252C4.77132 8.52256 4.3425 8.97866 3.80638 8.97866C3.27033 8.97866 2.84143 8.52264 2.84143 7.95252C2.84143 7.38249 3.27025 6.92639 3.80638 6.92639Z" fill="#333333"/>
<path fill-rule="evenodd" clip-rule="evenodd" d="M10.1589 0.997728C10.3465 1.05473 10.5341 1.11173 10.6949 1.19728L11.365 0.570246C11.4186 0.541703 11.4722 0.541703 11.5258 0.570246L12.1154 1.14028C12.169 1.16882 12.169 1.22583 12.1423 1.28283L11.7135 2.1094C11.7939 2.28041 11.9011 2.45141 11.9547 2.62241L12.8392 2.70796C12.8928 2.70796 12.9464 2.76496 12.9464 2.82196L13 3.67708C13 3.73408 12.9732 3.79108 12.9196 3.79108L12.0619 4.04764C12.035 4.24719 11.9547 4.4182 11.8742 4.61767L12.4639 5.33025C12.4907 5.35879 12.4907 5.44425 12.4639 5.50126L11.9546 6.12829C11.901 6.18529 11.8474 6.18529 11.7938 6.15683L11.0433 5.67228C10.8824 5.78628 10.6948 5.87183 10.534 5.95729L10.4268 6.89788C10.4268 6.95489 10.3999 6.98343 10.3196 7.01189L9.54229 7.06889C9.48869 7.06889 9.43508 7.04035 9.40824 6.98335L9.19382 6.07123C9.00617 6.01423 8.84536 5.95723 8.65778 5.90022L7.98769 6.47026C7.93409 6.52726 7.88049 6.52726 7.82688 6.47026L7.23724 5.9287C7.18363 5.90016 7.18363 5.8147 7.2104 5.7577L7.66606 4.95958C7.55885 4.78857 7.45164 4.61756 7.39804 4.41802L6.54031 4.33248C6.45987 4.33248 6.43311 4.27548 6.43311 4.21847L6.35266 3.3919C6.35266 3.30636 6.3795 3.24935 6.45987 3.24935L7.29075 3.02134C7.34436 2.82179 7.39796 2.62232 7.47841 2.4513L6.91552 1.73873C6.88868 1.68173 6.88868 1.62472 6.91552 1.56772L7.42479 0.912146C7.47839 0.883604 7.53199 0.855143 7.5856 0.912146L8.33612 1.36816C8.49693 1.28261 8.65774 1.16861 8.84539 1.1116L8.89899 0.171008C8.92583 0.114005 8.95259 0.0854622 9.0062 0.0570034L9.81032 0C9.86393 0 9.91753 0.0285424 9.94437 0.0855458L10.1588 0.99766L10.1589 0.997728ZM9.56921 1.8243C8.65786 1.90985 8.01464 2.73641 8.06824 3.67701C8.14868 4.6176 8.92596 5.30169 9.81047 5.24469C10.695 5.15915 11.365 4.33258 11.2847 3.39199C11.2042 2.4514 10.4538 1.7673 9.56929 1.8243H9.56921Z" fill="#333333"/>
<path fill-rule="evenodd" clip-rule="evenodd" d="M9.62257 2.65107C10.0782 2.62253 10.4803 2.96463 10.5071 3.47765C10.5607 3.9622 10.2122 4.38976 9.75655 4.41824C9.30089 4.44678 8.87204 4.10468 8.8452 3.59167C8.81836 3.10711 9.16682 2.67955 9.62249 2.65107H9.62257Z" fill="#333333"/>
</svg>
