<svg width="10" height="10" viewBox="0 0 10 10" fill="none" xmlns="http://www.w3.org/2000/svg">
<path d="M9.46161 3.12565C9.80633 2.78031 9.99996 2.31186 9.99996 1.82345C9.99996 1.33504 9.80633 0.866592 9.46161 0.52116C9.1113 0.186658 8.64576 0 8.16177 0C7.67778 0 7.21233 0.186664 6.86194 0.52116L6.56763 0.816005L9.16743 3.42054L9.46161 3.12565Z" fill="#333333"/>
<path d="M0.487319 7.07759L0.0252544 8.93065C-0.0381398 9.18708 0.0192597 9.45854 0.181196 9.66711C0.343049 9.87573 0.591547 9.99839 0.855206 9.99996C0.926401 9.99988 0.997187 9.991 1.06616 9.97347L2.91585 9.51057C3.03591 9.47791 3.14743 9.41933 3.2426 9.33904L0.658565 6.7522C0.578664 6.84697 0.520198 6.95795 0.487351 7.07756L0.487319 7.07759Z" fill="#333333"/>
<path d="M1.16968 6.22071L6.04533 1.33618L8.64639 3.94198L3.77074 8.82651L1.16968 6.22071Z" fill="#333333"/>
</svg>
