<svg width="15" height="16" viewBox="0 0 15 16" fill="none" xmlns="http://www.w3.org/2000/svg">
<path d="M14.9982 2.39074C14.9982 2.14368 15.0217 1.88647 14.8992 1.65972C14.7566 1.39743 14.4781 1.26037 14.1879 1.25867H13.9111H12.3879V1.10976V1.09453C12.3694 0.749333 12.0976 0.503958 11.7571 0.502256H11.5088H3.74843C3.57229 0.502256 3.39615 0.49718 3.21832 0.502256C2.86101 0.512409 2.61438 0.798387 2.61438 1.15035V1.26034H1.30084C1.11295 1.26034 0.921713 1.24681 0.73548 1.26373C0.317766 1.30095 0.0141054 1.62755 0.00238724 2.05227C0.000709671 2.1115 0.00238724 2.16903 0.00238724 2.22826V4.10487C0.00238724 4.70896 -0.0345189 5.32661 0.18189 5.90196C0.371458 6.40793 0.675097 6.86988 1.09618 7.20833C1.54074 7.56708 2.04904 7.7972 2.61608 7.87505C2.71171 7.88859 2.80733 7.89874 2.90295 7.90212C2.96502 8.0798 3.03716 8.2558 3.12104 8.42669C3.52366 9.25416 4.16785 9.95981 4.94625 10.4438C5.40256 10.7264 5.90583 10.9311 6.42756 11.0496V12.3982H4.84223C4.80533 12.3982 4.76842 12.3966 4.72983 12.3982C4.45135 12.4067 4.24669 12.581 4.15944 12.8416C3.9531 13.4525 3.75011 14.0633 3.55215 14.6776C3.46324 14.9534 3.57061 15.2597 3.81889 15.412C3.92626 15.478 4.0504 15.5 4.17455 15.5H10.8699H10.8866C11.2842 15.478 11.5761 15.0939 11.457 14.6979C11.4352 14.6218 11.4067 14.5473 11.3832 14.4728C11.2591 14.0955 11.1333 13.7181 11.0091 13.3408C10.9605 13.1952 10.9135 13.0497 10.8649 12.9042C10.8565 12.8771 10.8481 12.8484 10.838 12.8213C10.7759 12.6419 10.6552 12.5099 10.479 12.4405C10.328 12.3813 10.1351 12.4016 9.97574 12.4016H8.57496V11.0496C9.29968 10.8837 9.97909 10.5521 10.5663 10.08C11.2658 9.51646 11.7976 8.75329 12.1012 7.90552C13.1464 7.8666 14.1378 7.25743 14.6344 6.32163C14.8709 5.87488 14.9967 5.37571 14.9984 4.86974V4.33839L14.9982 2.39074ZM2.23181 6.73293C2.10767 6.67708 1.98856 6.6094 1.87616 6.53325C1.8426 6.51125 1.80905 6.48587 1.77718 6.46218H1.7755C1.78557 6.47064 1.79899 6.48418 1.80905 6.49095C1.78389 6.47402 1.71679 6.41987 1.7755 6.46218C1.77047 6.4571 1.76711 6.45541 1.76711 6.45372C1.70839 6.40464 1.65136 6.35219 1.59768 6.29635C1.54399 6.2405 1.49199 6.18466 1.44166 6.12374C1.43663 6.11698 1.4316 6.11021 1.42656 6.10513C1.40643 6.07806 1.38798 6.05098 1.36952 6.02391C1.29236 5.90715 1.22358 5.78531 1.16654 5.65841C1.17492 5.68041 1.18331 5.70241 1.19338 5.72441L1.14305 5.60257C1.15144 5.62118 1.15983 5.6398 1.16654 5.65841C1.10279 5.49088 1.05582 5.31829 1.0273 5.14229C0.988712 4.78017 1.0122 4.40449 1.0122 4.04237V2.4145C1.0122 2.36881 1.01052 2.32143 1.00884 2.27405H2.61598V6.15767C2.61598 6.39288 2.6294 6.62809 2.6596 6.85991C2.51365 6.82945 2.37106 6.78715 2.23183 6.733L2.23181 6.73293ZM10.1836 4.92229C10.1316 4.97643 10.0796 5.02889 10.0276 5.08304C9.69879 5.41809 9.36997 5.75484 9.0395 6.08989C9.04285 6.11188 9.04621 6.13388 9.05124 6.15588C9.13512 6.66353 9.219 7.17117 9.30288 7.67715C9.31966 7.78206 9.29785 7.87682 9.21229 7.94451C9.13009 8.0105 9.02272 8.0122 8.93213 7.96482C8.86839 7.93097 8.80296 7.89713 8.73921 7.86329C8.33156 7.64838 7.92222 7.43179 7.51457 7.21686C7.49108 7.22871 7.46927 7.24055 7.44579 7.2524C6.98948 7.4893 6.53318 7.72789 6.07687 7.96479C5.87221 8.0714 5.66922 7.8971 5.70781 7.67881C5.71956 7.60436 5.73298 7.53159 5.74472 7.45714C5.82189 7.00194 5.89906 6.54504 5.97623 6.08984C5.95442 6.06784 5.93261 6.04584 5.9108 6.02385C5.54677 5.65665 5.18274 5.28945 4.81868 4.92222C4.69789 4.80039 4.7348 4.52625 4.9294 4.49747C5.00321 4.48732 5.07535 4.47548 5.14917 4.46532C5.61888 4.39594 6.08693 4.32825 6.55667 4.25888C6.57344 4.22503 6.58854 4.19288 6.60364 4.16073C6.83011 3.69368 7.0566 3.22663 7.28305 2.76128C7.30989 2.70544 7.36022 2.66821 7.41725 2.6496C7.42229 2.64791 7.42732 2.64621 7.43235 2.64452C7.43571 2.64452 7.43906 2.64283 7.44074 2.64283C7.4441 2.64283 7.44577 2.64114 7.44913 2.64114C7.45919 2.63945 7.47094 2.63775 7.48268 2.63775H7.49946H7.51623C7.52798 2.63775 7.53804 2.63945 7.54979 2.64114C7.55482 2.64283 7.55818 2.64283 7.56321 2.64452H7.56656H7.56992C7.57495 2.64621 7.57831 2.64621 7.58334 2.64791C7.64038 2.66652 7.6907 2.70375 7.71755 2.75959C7.7511 2.82728 7.78465 2.89497 7.81653 2.96265C8.02958 3.39755 8.24264 3.83075 8.45737 4.26562C8.49428 4.27069 8.53119 4.27577 8.5681 4.28085C9.06971 4.35192 9.5696 4.42468 10.0712 4.49575C10.2675 4.52621 10.3027 4.79866 10.1836 4.92218L10.1836 4.92229ZM13.9767 5.14565C13.9482 5.32164 13.9012 5.49255 13.8374 5.65837C13.7821 5.7836 13.715 5.90374 13.6395 6.01712C13.6177 6.05097 13.5925 6.08481 13.569 6.11696C13.5774 6.1085 13.5892 6.09666 13.5959 6.0865C13.5774 6.11358 13.5271 6.17619 13.569 6.11696C13.564 6.12204 13.5623 6.12542 13.5606 6.12712C13.512 6.18634 13.46 6.24388 13.4046 6.29972C13.3493 6.35556 13.2939 6.40632 13.2352 6.45709C13.2285 6.46217 13.2218 6.46724 13.2151 6.47232C13.1882 6.49262 13.1614 6.51124 13.1345 6.52985C13.0188 6.60769 12.898 6.67538 12.7722 6.73461C12.794 6.72615 12.8158 6.71769 12.8376 6.70753C12.7974 6.72445 12.7571 6.74138 12.7168 6.7583C12.7353 6.74984 12.7537 6.74307 12.7722 6.73461C12.633 6.79045 12.4887 6.83106 12.341 6.86152C12.3746 6.57724 12.388 6.29125 12.388 6.00357V2.27405H13.9767H13.9935V2.33497V4.63126C13.9918 4.80386 13.9935 4.97478 13.9767 5.14568L13.9767 5.14565Z" fill="#333333"/>
</svg>
