<svg width="8" height="14" viewBox="0 0 8 14" fill="none" xmlns="http://www.w3.org/2000/svg">
<path d="M7.18849 14C7.40823 13.9948 7.61705 13.8998 7.7691 13.7358C7.92125 13.5718 8.00418 13.3522 7.99984 13.125V0.874965C8.00418 0.647822 7.92125 0.428161 7.7691 0.26416C7.61705 0.100161 7.40821 0.00518411 7.18849 0H0.811507C0.591775 0.00518717 0.382947 0.100155 0.2309 0.26416C0.0787493 0.428159 -0.0041824 0.647809 0.000162508 0.874965V13.125C-0.00418191 13.3522 0.0787493 13.5718 0.2309 13.7358C0.382955 13.8998 0.59179 13.9948 0.811507 14H7.18849ZM0.811507 0.65616H1.57392L1.88894 1.6581C1.93142 1.79327 2.05335 1.88484 2.19093 1.88484H5.80897C5.94655 1.88484 6.06848 1.79327 6.11097 1.6581L6.42598 0.65616H7.1884C7.2943 0.66853 7.37192 0.764993 7.36449 0.874924V11.972H0.635313V0.874924C0.627879 0.764993 0.705499 0.66853 0.811408 0.65616H0.811507ZM3.68241 12.9525C3.68231 12.8656 3.71562 12.7821 3.775 12.7205C3.83447 12.659 3.91518 12.6244 3.99927 12.6244H4.00081C4.12912 12.6247 4.24478 12.7048 4.29364 12.8275C4.34258 12.9501 4.31526 13.0911 4.22441 13.1848C4.13347 13.2786 3.99696 13.3065 3.8783 13.2556C3.75975 13.2047 3.68242 13.0851 3.68242 12.9525L3.68241 12.9525Z" fill="#333333"/>
</svg>
