<svg width="20" height="20" viewBox="0 0 20 20" fill="none" xmlns="http://www.w3.org/2000/svg">
<path d="M14.8277 12.4186C15.9045 10.7473 16.3252 8.73693 16.0088 6.77396C15.6925 4.81113 14.6615 3.03463 13.1142 1.78637C11.567 0.537806 9.61269 -0.0942898 7.6274 0.0114003C5.64204 0.117109 3.76609 0.953226 2.36006 2.35897C0.954021 3.76471 0.117631 5.64066 0.0114656 7.62595C-0.0945276 9.61131 0.537287 11.5658 1.78541 13.1131C3.03353 14.6605 4.80988 15.692 6.77264 16.0085C8.73547 16.3252 10.7461 15.9049 12.4176 14.8285L16.2603 18.6708C16.5787 18.9962 17.014 19.1808 17.4693 19.1833C17.9247 19.1858 18.362 19.006 18.6839 18.684C19.0059 18.3621 19.1855 17.9247 19.1829 17.4693C19.1803 17.0141 18.9957 16.5787 18.6702 16.2604L14.8277 12.4186ZM2.17811 8.07993C2.17811 6.51485 2.7998 5.01393 3.90641 3.90711C5.01316 2.8005 6.51404 2.17881 8.07923 2.17881C9.64442 2.17881 11.1452 2.8005 12.2521 3.90711C13.3587 5.01386 13.9803 6.51474 13.9803 8.07993C13.9803 9.64512 13.3587 11.1459 12.2521 12.2528C11.1453 13.3594 9.64442 13.981 8.07923 13.981C6.51469 13.9793 5.0148 13.3571 3.9086 12.2507C2.80239 11.1444 2.18001 9.64454 2.1783 8.08011L2.17811 8.07993Z" fill="white"/>
</svg>
