<svg width="17" height="11" viewBox="0 0 17 11" fill="none" xmlns="http://www.w3.org/2000/svg">
<path d="M17 10.2266V0.773401C17 0.770764 16.9993 0.768366 16.9992 0.765608C16.9991 0.749303 16.9964 0.733118 16.9944 0.716814C16.9651 0.317111 16.6377 0 16.235 0H0.76487C0.362513 0 0.0352298 0.31662 0.00569201 0.715863C0.00343895 0.732527 0.000948593 0.749191 0.000711502 0.766096C0.000711502 0.768734 0 0.771132 0 0.77353V10.2267C0 10.2366 0.00260885 10.2456 0.00284601 10.2554C0.00391325 10.2713 0.00474335 10.2871 0.00758935 10.3028C0.0460097 10.6931 0.368782 11 0.764855 11H16.235C16.6309 11 16.954 10.6932 16.9924 10.3028C16.9952 10.2866 16.9962 10.2705 16.9971 10.2544C16.9974 10.2449 17 10.2362 17 10.2266L17 10.2266ZM0.849858 1.61897L5.40954 4.98344L0.849858 9.24442V1.61897ZM10.675 4.59503C10.6749 4.59503 10.6747 4.59515 10.6746 4.59539L8.49985 6.2L6.32513 4.59539C6.32513 4.59539 6.32501 4.59527 6.32478 4.59503L1.26207 0.859492H15.7374L10.675 4.59503ZM6.10898 5.49995L8.24917 7.07915C8.2685 7.09342 8.28866 7.10565 8.3093 7.11608C8.31096 7.11716 8.31285 7.11764 8.31451 7.11848C8.33989 7.13083 8.36598 7.13982 8.39266 7.14689C8.39942 7.14857 8.40594 7.15037 8.4127 7.15157C8.44128 7.15756 8.47021 7.16188 8.49927 7.16188H8.49962H8.49998C8.52891 7.16188 8.55797 7.1578 8.58655 7.15157C8.5933 7.15025 8.59995 7.14845 8.60659 7.14689C8.63291 7.14006 8.65912 7.13095 8.68426 7.11872C8.68628 7.11764 8.68817 7.11716 8.69019 7.11608C8.7107 7.10565 8.73086 7.09342 8.75019 7.07915L10.8904 5.49995L15.8566 10.1406H1.14263L6.10898 5.49995ZM11.5903 4.98347L16.1497 1.619V9.24445L11.5903 4.98347Z" fill="#333333"/>
</svg>
