<svg width="9" height="11" viewBox="0 0 9 11" fill="none" xmlns="http://www.w3.org/2000/svg">
<path d="M7.61431 4.1416H0.987606C0.446029 4.1416 0 4.58763 0 5.12921V9.701C0 10.2426 0.446029 10.6886 0.987606 10.6886H7.63024C8.17182 10.6886 8.61785 10.2426 8.61785 9.701L8.61796 5.12921C8.60196 4.58763 8.15594 4.1416 7.61437 4.1416H7.61431Z" fill="#333333"/>
<path d="M6.84967 4.93814C6.57888 4.93814 6.37175 4.73103 6.37175 4.46023V3.02662C6.37175 1.87969 5.44784 0.955747 4.30088 0.955747C3.15392 0.955747 2.23 1.87966 2.23 3.02662V4.46023C2.23 4.73102 2.02288 4.93814 1.75209 4.93814C1.4813 4.93814 1.27417 4.73103 1.27417 4.46023V3.02662C1.27417 1.35399 2.62824 0 4.30079 0C5.97343 0 7.32741 1.35407 7.32741 3.02662V4.46023C7.32752 4.73102 7.12052 4.93814 6.84972 4.93814H6.84967Z" fill="#333333"/>
</svg>
