<svg width="10" height="10" viewBox="0 0 10 10" fill="none" xmlns="http://www.w3.org/2000/svg">
<path d="M9.46161 3.12565C9.80633 2.78031 9.99996 2.31186 9.99996 1.82345C9.99996 1.33504 9.80633 0.866592 9.46161 0.52116C9.1113 0.186658 8.64576 0 8.16177 0C7.67778 0 7.21233 0.186664 6.86194 0.52116L6.56763 0.816005L9.16743 3.42054L9.46161 3.12565Z" fill="#333333"/>
<path d="M0.487319 7.07734L0.0252544 8.9304C-0.0381398 9.18683 0.0192597 9.4583 0.181196 9.66686C0.343049 9.87549 0.591547 9.99814 0.855206 9.99972C0.926401 9.99964 0.997187 9.99075 1.06616 9.97323L2.91585 9.51032C3.03591 9.47766 3.14743 9.41909 3.2426 9.3388L0.658565 6.75195C0.578664 6.84672 0.520198 6.9577 0.487351 7.07731L0.487319 7.07734Z" fill="#333333"/>
<path d="M1.16968 6.22047L6.04533 1.33594L8.64639 3.94174L3.77074 8.82627L1.16968 6.22047Z" fill="#333333"/>
</svg>
