<svg width="12" height="7" viewBox="0 0 12 7" fill="none" xmlns="http://www.w3.org/2000/svg">
<path fill-rule="evenodd" clip-rule="evenodd" d="M11.9225 3.27741C11.8956 3.24404 11.2504 2.44803 10.2043 1.64417C8.80474 0.568559 7.35093 0 5.99986 0C4.64904 0 3.19523 0.568559 1.79565 1.64417C0.749803 2.44803 0.104372 3.24403 0.077489 3.27741C-0.0258297 3.40581 -0.0258297 3.59394 0.077489 3.72234C0.104363 3.75596 0.749803 4.55172 1.79565 5.35583C3.19526 6.43144 4.64907 7 5.99986 7C7.35078 7 8.80459 6.43144 10.2043 5.35583C11.2504 4.55175 11.8956 3.75597 11.9225 3.72234C12.0258 3.59395 12.0258 3.40582 11.9225 3.27741ZM2.19451 4.80959C1.52887 4.29981 1.02818 3.78422 0.770848 3.50014C1.20546 3.02137 2.33566 1.88291 3.79681 1.21067C3.24374 1.79978 2.90128 2.60852 2.90128 3.50001C2.90128 4.38987 3.24264 5.19727 3.79412 5.78605C3.1732 5.50076 2.62632 5.14026 2.19451 4.80959ZM5.9998 6.07074C4.65225 6.07074 3.55581 4.91756 3.55581 3.50001C3.55581 2.08234 4.65225 0.92905 5.9998 0.92905C7.34746 0.92905 8.4439 2.08234 8.4439 3.50001C8.4439 4.91756 7.34746 6.07074 5.9998 6.07074ZM9.80538 4.80959C9.3738 5.14026 8.82674 5.50072 8.20579 5.78602C8.75727 5.19727 9.09852 4.38984 9.09852 3.49998C9.09852 2.61001 8.75751 1.80273 8.20602 1.21383C8.82694 1.49924 9.3738 1.85971 9.80538 2.19025C10.4709 2.70016 10.9718 3.21596 11.2292 3.49995C10.9718 3.78394 10.4709 4.2996 9.80538 4.80959ZM6.76351 3.0539C6.43652 3.0539 6.17139 2.77502 6.17139 2.43119C6.17139 2.23628 6.25675 2.06264 6.38977 1.94838C6.26511 1.91381 6.1348 1.8935 5.99976 1.8935C5.15637 1.8935 4.47244 2.61266 4.47244 3.50002C4.47244 4.38714 5.15637 5.10642 5.99976 5.10642C6.84337 5.10642 7.52708 4.38714 7.52708 3.50002C7.52708 3.19775 7.44634 2.91614 7.30847 2.67466C7.21825 2.89759 7.00809 3.0539 6.76351 3.0539Z" fill="#333333"/>
</svg>
