<svg width="9" height="9" viewBox="0 0 9 9" fill="none" xmlns="http://www.w3.org/2000/svg">
<path fill-rule="evenodd" clip-rule="evenodd" d="M3.40758 5.47087C3.96081 6.0241 4.5669 6.46774 5.18693 6.79466L6.35027 5.6084L8.4675 6.09584C8.68779 6.1467 8.87817 6.28027 8.87817 6.50652V8.59584C8.87817 8.68158 8.82037 8.75332 8.73661 8.77129C6.75484 9.19194 4.28875 8.38056 2.39373 6.48546C0.499724 4.5896 -0.311654 2.12333 0.108071 0.141562C0.126039 0.057801 0.197777 0 0.28352 0H2.37284C2.59916 0 2.73272 0.190381 2.78352 0.410678L3.27096 2.5279L2.0847 3.69125C2.41169 4.31026 2.85526 4.91734 3.40751 5.47059L3.40758 5.47087Z" fill="#333333"/>
</svg>
